<?xml version="1.0" encoding="utf-8" standalone="no"?>
<!DOCTYPE svg PUBLIC "-//W3C//DTD SVG 1.1//EN"
  "http://www.w3.org/Graphics/SVG/1.1/DTD/svg11.dtd">
<svg xmlns:xlink="http://www.w3.org/1999/xlink" width="1080pt" height="864pt" viewBox="0 0 1080 864" xmlns="http://www.w3.org/2000/svg" version="1.1">
 <metadata>
  <rdf:RDF xmlns:dc="http://purl.org/dc/elements/1.1/" xmlns:cc="http://creativecommons.org/ns#" xmlns:rdf="http://www.w3.org/1999/02/22-rdf-syntax-ns#">
   <cc:Work>
    <dc:type rdf:resource="http://purl.org/dc/dcmitype/StillImage"/>
    <dc:date>2023-08-16T14:15:54.842745</dc:date>
    <dc:format>image/svg+xml</dc:format>
    <dc:creator>
     <cc:Agent>
      <dc:title>Matplotlib v3.7.1, https://matplotlib.org/</dc:title>
     </cc:Agent>
    </dc:creator>
   </cc:Work>
  </rdf:RDF>
 </metadata>
 <defs>
  <style type="text/css">*{stroke-linejoin: round; stroke-linecap: butt}</style>
 </defs>
 <g id="figure_1">
  <g id="patch_1">
   <path d="M 0 864 
L 1080 864 
L 1080 0 
L 0 0 
z
" style="fill: #ffffff"/>
  </g>
  <g id="axes_1">
   <g id="PatchCollection_1">
    <path d="M 278.758764 715.393468 
L 305.819397 698.562194 
L 317.172009 708.616662 
L 350.712768 676.623705 
L 363.110052 651.93435 
L 336.422187 634.557055 
L 334.875493 608.023534 
L 301.810195 576.780395 
L 340.521853 549.437072 
L 377.680834 555.075695 
L 416.560796 536.61328 
L 455.598807 551.843407 
L 472.688637 537.326183 
L 494.337486 498.135753 
L 487.980959 478.888915 
L 536.197756 442.214794 
L 537.169979 479.805614 
L 570.31246 512.795251 
L 589.582033 519.209069 
L 583.49887 535.699657 
L 607.371313 564.086571 
L 625.047251 550.353002 
L 626.156878 501.801012 
L 652.532591 466.971825 
L 651.400873 436.712292 
L 674.388928 429.374853 
L 683.240177 461.472399 
L 697.561197 474.30465 
L 710.960223 471.555321 
L 715.329702 460.554162 
L 744.451279 455.969896 
L 759.558466 486.220971 
L 773.701846 448.634765 
L 758.579406 436.712292 
L 763.57398 411.946801 
L 781.165107 403.688048 
L 792.071515 418.326012 
L 811.617212 422.953344 
L 813.972952 405.523754 
L 807.014342 386.253075 
L 814.869963 358.217614 
L 853.980293 373.763817 
L 890.996675 376.872289 
L 898.188014 363.71975 
L 898.188014 738.72 
L 294.396398 738.72 
L 278.758764 715.393468 
" clip-path="url(#p9fc4cbdadc)" style="fill: #1f77b4"/>
    <path d="M 208.811986 490.580403 
L 208.811986 133.92 
L 420.540799 133.92 
L 408.174489 192.627282 
L 416.532263 213.812877 
L 392.657585 241.843725 
L 363.35416 241.2208 
L 363.634361 232.50216 
L 335.921547 231.880004 
L 322.27769 259.280236 
L 331.791836 261.771935 
L 338.998301 269.864574 
L 328.248693 272.97766 
L 295.490025 317.789025 
L 294.755402 324.6312 
L 259.040094 346.402807 
L 261.415425 375.00736 
L 216.859518 412.921178 
L 211.375744 439.637731 
L 216.342705 452.059313 
L 215.566268 481.244494 
L 208.811986 490.580403 
" clip-path="url(#p9fc4cbdadc)" style="fill: #1f77b4"/>
    <path d="M 208.811986 738.72 
L 208.811986 505.275268 
L 223.69144 511.812414 
L 261.716995 468.258237 
L 262.479598 468.566033 
L 265.824925 464.538339 
L 274.62285 461.39659 
L 275.585085 457.815409 
L 279.801293 455.499022 
L 283.964305 457.530408 
L 296.607016 455.124935 
L 308.841695 454.803909 
L 320.127089 457.690753 
L 334.269465 510.951085 
L 340.521853 549.437072 
L 301.810195 576.780395 
L 334.875493 608.023534 
L 336.422187 634.557055 
L 363.110052 651.93435 
L 350.712768 676.623705 
L 317.172009 708.616662 
L 305.819397 698.562194 
L 278.758764 715.393468 
L 294.396398 738.72 
L 208.811986 738.72 
" clip-path="url(#p9fc4cbdadc)" style="fill: #1f77b4"/>
    <path d="M 314.848221 437.810485 
L 315.874381 441.675015 
L 315.871983 441.674597 
L 311.679917 438.920135 
L 314.848221 437.810485 
" clip-path="url(#p9fc4cbdadc)" style="fill: #1f77b4"/>
    <path d="M 208.811986 505.275268 
L 208.811986 490.580403 
L 215.566268 481.244494 
L 216.342705 452.059313 
L 211.375744 439.637731 
L 216.859518 412.921178 
L 261.415425 375.00736 
L 259.040094 346.402807 
L 294.755402 324.6312 
L 295.490025 317.789025 
L 328.248693 272.97766 
L 338.998301 269.864574 
L 331.791836 261.771935 
L 322.27769 259.280236 
L 335.921547 231.880004 
L 363.634361 232.50216 
L 363.35416 241.2208 
L 392.657585 241.843725 
L 416.532263 213.812877 
L 433.329203 221.912438 
L 450.237908 211.321178 
L 467.005461 220.043664 
L 502.209806 205.713317 
L 519.453017 215.681652 
L 541.401527 213.812877 
L 530.340884 195.741906 
L 574.296548 177.669396 
L 575.362258 191.381432 
L 587.693865 190.133275 
L 596.983889 198.235912 
L 620.160909 198.508858 
L 613.575838 202.665518 
L 607.856843 204.080612 
L 603.102241 203.027956 
L 609.550675 205.547998 
L 617.056801 203.107076 
L 620.162361 200.452385 
L 631.49803 199.597946 
L 634.869702 199.843443 
L 635.717397 201.246585 
L 646.969974 201.59064 
L 648.803295 204.873514 
L 663.809107 212.396941 
L 675.161353 220.360992 
L 675.769311 225.786147 
L 682.749312 230.900649 
L 682.518299 233.405042 
L 686.717346 235.459779 
L 688.878379 238.406534 
L 695.495345 238.466968 
L 696.796894 237.30029 
L 703.00467 253.054064 
L 686.495952 277.958751 
L 699.762307 304.098522 
L 694.237574 321.52119 
L 732.816823 327.120592 
L 733.313847 340.183556 
L 767.416192 362.184337 
L 803.308351 332.097838 
L 816.645052 342.67141 
L 814.869963 358.217614 
L 807.014342 386.253075 
L 813.972952 405.523754 
L 811.617212 422.953344 
L 792.071515 418.326012 
L 781.165107 403.688048 
L 763.57398 411.946801 
L 758.579406 436.712292 
L 773.701846 448.634765 
L 759.558466 486.220971 
L 744.451279 455.969896 
L 715.329702 460.554162 
L 710.960223 471.555321 
L 697.561197 474.30465 
L 683.240177 461.472399 
L 674.388928 429.374853 
L 651.400873 436.712292 
L 652.532591 466.971825 
L 626.156878 501.801012 
L 625.047251 550.353002 
L 607.371313 564.086571 
L 583.49887 535.699657 
L 589.582033 519.209069 
L 570.31246 512.795251 
L 537.169979 479.805614 
L 536.197756 442.214794 
L 487.980959 478.888915 
L 494.337486 498.135753 
L 472.688637 537.326183 
L 455.598807 551.843407 
L 416.560796 536.61328 
L 377.680834 555.075695 
L 340.521853 549.437072 
L 334.269465 510.951085 
L 320.127089 457.690753 
L 326.958967 459.438372 
L 327.458135 457.352654 
L 335.475459 457.446282 
L 337.156078 454.796392 
L 333.024984 448.478654 
L 327.095353 446.506609 
L 323.529896 443.006543 
L 315.874381 441.675015 
L 314.848221 437.810485 
L 311.679917 438.920135 
L 311.206099 438.608806 
L 308.202001 439.223801 
L 303.86809 436.275997 
L 290.440021 432.752453 
L 285.854911 434.86919 
L 279.279228 433.11583 
L 270.668237 441.635803 
L 263.874769 444.648352 
L 261.865625 443.516537 
L 256.637024 444.192852 
L 248.971423 451.912085 
L 246.606862 458.467691 
L 244.50958 457.991599 
L 243.035777 459.291023 
L 232.437122 477.480745 
L 229.18941 495.441769 
L 232.55678 494.406545 
L 235.535537 489.054692 
L 236.266781 483.902779 
L 241.256792 478.836112 
L 247.120438 466.483871 
L 250.663192 463.324417 
L 256.176035 462.506803 
L 258.577252 466.990999 
L 261.716995 468.258237 
L 223.69144 511.812414 
L 208.811986 505.275268 
" clip-path="url(#p9fc4cbdadc)" style="fill: #1f77b4"/>
    <path d="M 649.813812 198.858068 
L 652.226549 200.245828 
L 652.477915 201.192193 
L 639.571425 200.306731 
L 638.726517 198.727497 
L 649.813812 198.858068 
" clip-path="url(#p9fc4cbdadc)" style="fill: #1f77b4"/>
    <path d="M 686.495952 277.958751 
L 703.00467 253.054064 
L 696.796894 237.30029 
L 699.785245 234.621604 
L 704.939343 237.282293 
L 710.863217 233.286368 
L 711.757591 237.116824 
L 714.239064 235.528485 
L 715.927273 236.971023 
L 718.846292 233.453402 
L 724.852618 233.784415 
L 726.170954 232.549484 
L 720.662235 224.515694 
L 716.240246 226.120102 
L 716.226265 223.368063 
L 714.189515 223.381993 
L 724.011594 211.321178 
L 729.977601 221.288744 
L 745.421529 221.912438 
L 751.801724 234.370934 
L 763.871537 238.729101 
L 763.201737 253.67622 
L 779.335977 257.166906 
L 774.50537 274.846435 
L 787.820243 274.846435 
L 815.893861 243.713268 
L 813.853429 218.796276 
L 828.616907 222.536132 
L 844.85831 217.550426 
L 875.411923 225.649218 
L 881.176885 238.729101 
L 884.805692 251.808214 
L 898.188014 251.130462 
L 898.188014 363.71975 
L 890.996675 376.872289 
L 853.980293 373.763817 
L 814.869963 358.217614 
L 816.645052 342.67141 
L 803.308351 332.097838 
L 767.416192 362.184337 
L 733.313847 340.183556 
L 732.816823 327.120592 
L 694.237574 321.52119 
L 699.762307 304.098522 
L 686.495952 277.958751 
" clip-path="url(#p9fc4cbdadc)" style="fill: #1f77b4"/>
    <path d="M 408.174489 192.627282 
L 420.540799 133.92 
L 898.188014 133.92 
L 898.188014 251.130462 
L 884.805692 251.808214 
L 881.176885 238.729101 
L 875.411923 225.649218 
L 844.85831 217.550426 
L 828.616907 222.536132 
L 813.853429 218.796276 
L 815.893861 243.713268 
L 787.820243 274.846435 
L 774.50537 274.846435 
L 779.335977 257.166906 
L 763.201737 253.67622 
L 763.871537 238.729101 
L 751.801724 234.370934 
L 745.421529 221.912438 
L 729.977601 221.288744 
L 724.011594 211.321178 
L 714.189515 223.381993 
L 712.490841 223.393611 
L 709.049586 220.528249 
L 706.088237 220.107651 
L 705.284118 217.520968 
L 700.11059 217.635009 
L 696.052712 215.209027 
L 691.686437 205.211609 
L 689.744286 204.176454 
L 686.698616 204.887184 
L 680.508168 201.264947 
L 670.367844 202.278714 
L 662.11876 197.672921 
L 655.147868 192.08503 
L 653.566731 186.467466 
L 640.689649 179.81693 
L 637.011206 175.762512 
L 628.361884 170.686983 
L 626.657818 173.233141 
L 631.657877 178.3663 
L 646.379551 187.456204 
L 647.227677 193.473676 
L 650.195111 192.906192 
L 648.364813 194.539588 
L 651.595515 197.870053 
L 652.226549 200.245828 
L 649.813812 198.858068 
L 638.726517 198.727497 
L 637.951256 197.278443 
L 633.659198 197.785467 
L 628.410858 195.717886 
L 629.080945 192.732057 
L 634.083807 196.472259 
L 637.469148 196.383331 
L 636.352138 193.911759 
L 620.669422 185.648767 
L 624.370334 190.447102 
L 616.817557 186.861918 
L 614.161333 189.121644 
L 621.651419 193.046528 
L 623.3132 195.456539 
L 621.691504 197.542708 
L 620.160909 198.508858 
L 596.983889 198.235912 
L 587.693865 190.133275 
L 575.362258 191.381432 
L 574.296548 177.669396 
L 530.340884 195.741906 
L 541.401527 213.812877 
L 519.453017 215.681652 
L 502.209806 205.713317 
L 467.005461 220.043664 
L 450.237908 211.321178 
L 433.329203 221.912438 
L 416.532263 213.812877 
L 408.174489 192.627282 
" clip-path="url(#p9fc4cbdadc)" style="fill: #1f77b4"/>
   </g>
   <g id="PathCollection_1">
    <path d="M 559.158702 268.292458 
C 561.349639 268.292458 563.451136 267.421989 565.000362 265.872762 
C 566.549589 264.323536 567.420058 262.222039 567.420058 260.031102 
C 567.420058 257.840165 566.549589 255.738668 565.000362 254.189441 
C 563.451136 252.640215 561.349639 251.769746 559.158702 251.769746 
C 556.967765 251.769746 554.866268 252.640215 553.317041 254.189441 
C 551.767815 255.738668 550.897346 257.840165 550.897346 260.031102 
C 550.897346 262.222039 551.767815 264.323536 553.317041 265.872762 
C 554.866268 267.421989 556.967765 268.292458 559.158702 268.292458 
z
" clip-path="url(#p9fc4cbdadc)" style="fill: #ff0000; stroke: #ff0000"/>
    <path d="M 674.311729 253.74654 
C 675.380797 253.74654 676.406222 253.321795 677.162168 252.56585 
C 677.918113 251.809905 678.342858 250.784479 678.342858 249.715411 
C 678.342858 248.646343 677.918113 247.620918 677.162168 246.864973 
C 676.406222 246.109027 675.380797 245.684282 674.311729 245.684282 
C 673.242661 245.684282 672.217236 246.109027 671.46129 246.864973 
C 670.705345 247.620918 670.2806 248.646343 670.2806 249.715411 
C 670.2806 250.784479 670.705345 251.809905 671.46129 252.56585 
C 672.217236 253.321795 673.242661 253.74654 674.311729 253.74654 
z
" clip-path="url(#p9fc4cbdadc)" style="fill: #ff0000; stroke: #ff0000"/>
    <path d="M 229.024684 500.086066 
C 229.990038 500.086066 230.915983 499.702526 231.598591 499.019918 
C 232.281199 498.33731 232.664739 497.411364 232.664739 496.446011 
C 232.664739 495.480657 232.281199 494.554711 231.598591 493.872103 
C 230.915983 493.189495 229.990038 492.805956 229.024684 492.805956 
C 228.05933 492.805956 227.133384 493.189495 226.450776 493.872103 
C 225.768168 494.554711 225.384629 495.480657 225.384629 496.446011 
C 225.384629 497.411364 225.768168 498.33731 226.450776 499.019918 
C 227.133384 499.702526 228.05933 500.086066 229.024684 500.086066 
z
" clip-path="url(#p9fc4cbdadc)" style="fill: #ff0000; stroke: #ff0000"/>
    <path d="M 585.094076 246.189519 
C 588.091575 246.189519 590.966708 244.9986 593.08626 242.879048 
C 595.205811 240.759496 596.39673 237.884363 596.39673 234.886864 
C 596.39673 231.889365 595.205811 229.014233 593.08626 226.894681 
C 590.966708 224.775129 588.091575 223.58421 585.094076 223.58421 
C 582.096577 223.58421 579.221444 224.775129 577.101892 226.894681 
C 574.98234 229.014233 573.791421 231.889365 573.791421 234.886864 
C 573.791421 237.884363 574.98234 240.759496 577.101892 242.879048 
C 579.221444 244.9986 582.096577 246.189519 585.094076 246.189519 
z
" clip-path="url(#p9fc4cbdadc)" style="fill: #ff0000; stroke: #ff0000"/>
    <path d="M 643.181259 323.212714 
C 646.178758 323.212714 649.05389 322.021795 651.173442 319.902243 
C 653.292994 317.782691 654.483913 314.907559 654.483913 311.91006 
C 654.483913 308.91256 653.292994 306.037428 651.173442 303.917876 
C 649.05389 301.798324 646.178758 300.607405 643.181259 300.607405 
C 640.183759 300.607405 637.308627 301.798324 635.189075 303.917876 
C 633.069523 306.037428 631.878604 308.91256 631.878604 311.91006 
C 631.878604 314.907559 633.069523 317.782691 635.189075 319.902243 
C 637.308627 322.021795 640.183759 323.212714 643.181259 323.212714 
z
" clip-path="url(#p9fc4cbdadc)" style="fill: #ff0000; stroke: #ff0000"/>
   </g>
   <g id="text_1">
    <!-- Curych -->
    <g transform="translate(562.158702 257.031102) scale(0.08 -0.08)">
     <defs>
      <path id="DejaVuSans-43" d="M 4122 4306 
L 4122 3641 
Q 3803 3938 3442 4084 
Q 3081 4231 2675 4231 
Q 1875 4231 1450 3742 
Q 1025 3253 1025 2328 
Q 1025 1406 1450 917 
Q 1875 428 2675 428 
Q 3081 428 3442 575 
Q 3803 722 4122 1019 
L 4122 359 
Q 3791 134 3420 21 
Q 3050 -91 2638 -91 
Q 1578 -91 968 557 
Q 359 1206 359 2328 
Q 359 3453 968 4101 
Q 1578 4750 2638 4750 
Q 3056 4750 3426 4639 
Q 3797 4528 4122 4306 
z
" transform="scale(0.015625)"/>
      <path id="DejaVuSans-75" d="M 544 1381 
L 544 3500 
L 1119 3500 
L 1119 1403 
Q 1119 906 1312 657 
Q 1506 409 1894 409 
Q 2359 409 2629 706 
Q 2900 1003 2900 1516 
L 2900 3500 
L 3475 3500 
L 3475 0 
L 2900 0 
L 2900 538 
Q 2691 219 2414 64 
Q 2138 -91 1772 -91 
Q 1169 -91 856 284 
Q 544 659 544 1381 
z
M 1991 3584 
L 1991 3584 
z
" transform="scale(0.015625)"/>
      <path id="DejaVuSans-72" d="M 2631 2963 
Q 2534 3019 2420 3045 
Q 2306 3072 2169 3072 
Q 1681 3072 1420 2755 
Q 1159 2438 1159 1844 
L 1159 0 
L 581 0 
L 581 3500 
L 1159 3500 
L 1159 2956 
Q 1341 3275 1631 3429 
Q 1922 3584 2338 3584 
Q 2397 3584 2469 3576 
Q 2541 3569 2628 3553 
L 2631 2963 
z
" transform="scale(0.015625)"/>
      <path id="DejaVuSans-79" d="M 2059 -325 
Q 1816 -950 1584 -1140 
Q 1353 -1331 966 -1331 
L 506 -1331 
L 506 -850 
L 844 -850 
Q 1081 -850 1212 -737 
Q 1344 -625 1503 -206 
L 1606 56 
L 191 3500 
L 800 3500 
L 1894 763 
L 2988 3500 
L 3597 3500 
L 2059 -325 
z
" transform="scale(0.015625)"/>
      <path id="DejaVuSans-63" d="M 3122 3366 
L 3122 2828 
Q 2878 2963 2633 3030 
Q 2388 3097 2138 3097 
Q 1578 3097 1268 2742 
Q 959 2388 959 1747 
Q 959 1106 1268 751 
Q 1578 397 2138 397 
Q 2388 397 2633 464 
Q 2878 531 3122 666 
L 3122 134 
Q 2881 22 2623 -34 
Q 2366 -91 2075 -91 
Q 1284 -91 818 406 
Q 353 903 353 1747 
Q 353 2603 823 3093 
Q 1294 3584 2113 3584 
Q 2378 3584 2631 3529 
Q 2884 3475 3122 3366 
z
" transform="scale(0.015625)"/>
      <path id="DejaVuSans-68" d="M 3513 2113 
L 3513 0 
L 2938 0 
L 2938 2094 
Q 2938 2591 2744 2837 
Q 2550 3084 2163 3084 
Q 1697 3084 1428 2787 
Q 1159 2491 1159 1978 
L 1159 0 
L 581 0 
L 581 4863 
L 1159 4863 
L 1159 2956 
Q 1366 3272 1645 3428 
Q 1925 3584 2291 3584 
Q 2894 3584 3203 3211 
Q 3513 2838 3513 2113 
z
" transform="scale(0.015625)"/>
     </defs>
     <use xlink:href="#DejaVuSans-43"/>
     <use xlink:href="#DejaVuSans-75" x="69.824219"/>
     <use xlink:href="#DejaVuSans-72" x="133.203125"/>
     <use xlink:href="#DejaVuSans-79" x="174.316406"/>
     <use xlink:href="#DejaVuSans-63" x="233.496094"/>
     <use xlink:href="#DejaVuSans-68" x="288.476562"/>
    </g>
   </g>
   <g id="text_2">
    <!-- St. Gallen -->
    <g transform="translate(677.311729 246.715411) scale(0.08 -0.08)">
     <defs>
      <path id="DejaVuSans-53" d="M 3425 4513 
L 3425 3897 
Q 3066 4069 2747 4153 
Q 2428 4238 2131 4238 
Q 1616 4238 1336 4038 
Q 1056 3838 1056 3469 
Q 1056 3159 1242 3001 
Q 1428 2844 1947 2747 
L 2328 2669 
Q 3034 2534 3370 2195 
Q 3706 1856 3706 1288 
Q 3706 609 3251 259 
Q 2797 -91 1919 -91 
Q 1588 -91 1214 -16 
Q 841 59 441 206 
L 441 856 
Q 825 641 1194 531 
Q 1563 422 1919 422 
Q 2459 422 2753 634 
Q 3047 847 3047 1241 
Q 3047 1584 2836 1778 
Q 2625 1972 2144 2069 
L 1759 2144 
Q 1053 2284 737 2584 
Q 422 2884 422 3419 
Q 422 4038 858 4394 
Q 1294 4750 2059 4750 
Q 2388 4750 2728 4690 
Q 3069 4631 3425 4513 
z
" transform="scale(0.015625)"/>
      <path id="DejaVuSans-74" d="M 1172 4494 
L 1172 3500 
L 2356 3500 
L 2356 3053 
L 1172 3053 
L 1172 1153 
Q 1172 725 1289 603 
Q 1406 481 1766 481 
L 2356 481 
L 2356 0 
L 1766 0 
Q 1100 0 847 248 
Q 594 497 594 1153 
L 594 3053 
L 172 3053 
L 172 3500 
L 594 3500 
L 594 4494 
L 1172 4494 
z
" transform="scale(0.015625)"/>
      <path id="DejaVuSans-2e" d="M 684 794 
L 1344 794 
L 1344 0 
L 684 0 
L 684 794 
z
" transform="scale(0.015625)"/>
      <path id="DejaVuSans-20" transform="scale(0.015625)"/>
      <path id="DejaVuSans-47" d="M 3809 666 
L 3809 1919 
L 2778 1919 
L 2778 2438 
L 4434 2438 
L 4434 434 
Q 4069 175 3628 42 
Q 3188 -91 2688 -91 
Q 1594 -91 976 548 
Q 359 1188 359 2328 
Q 359 3472 976 4111 
Q 1594 4750 2688 4750 
Q 3144 4750 3555 4637 
Q 3966 4525 4313 4306 
L 4313 3634 
Q 3963 3931 3569 4081 
Q 3175 4231 2741 4231 
Q 1884 4231 1454 3753 
Q 1025 3275 1025 2328 
Q 1025 1384 1454 906 
Q 1884 428 2741 428 
Q 3075 428 3337 486 
Q 3600 544 3809 666 
z
" transform="scale(0.015625)"/>
      <path id="DejaVuSans-61" d="M 2194 1759 
Q 1497 1759 1228 1600 
Q 959 1441 959 1056 
Q 959 750 1161 570 
Q 1363 391 1709 391 
Q 2188 391 2477 730 
Q 2766 1069 2766 1631 
L 2766 1759 
L 2194 1759 
z
M 3341 1997 
L 3341 0 
L 2766 0 
L 2766 531 
Q 2569 213 2275 61 
Q 1981 -91 1556 -91 
Q 1019 -91 701 211 
Q 384 513 384 1019 
Q 384 1609 779 1909 
Q 1175 2209 1959 2209 
L 2766 2209 
L 2766 2266 
Q 2766 2663 2505 2880 
Q 2244 3097 1772 3097 
Q 1472 3097 1187 3025 
Q 903 2953 641 2809 
L 641 3341 
Q 956 3463 1253 3523 
Q 1550 3584 1831 3584 
Q 2591 3584 2966 3190 
Q 3341 2797 3341 1997 
z
" transform="scale(0.015625)"/>
      <path id="DejaVuSans-6c" d="M 603 4863 
L 1178 4863 
L 1178 0 
L 603 0 
L 603 4863 
z
" transform="scale(0.015625)"/>
      <path id="DejaVuSans-65" d="M 3597 1894 
L 3597 1613 
L 953 1613 
Q 991 1019 1311 708 
Q 1631 397 2203 397 
Q 2534 397 2845 478 
Q 3156 559 3463 722 
L 3463 178 
Q 3153 47 2828 -22 
Q 2503 -91 2169 -91 
Q 1331 -91 842 396 
Q 353 884 353 1716 
Q 353 2575 817 3079 
Q 1281 3584 2069 3584 
Q 2775 3584 3186 3129 
Q 3597 2675 3597 1894 
z
M 3022 2063 
Q 3016 2534 2758 2815 
Q 2500 3097 2075 3097 
Q 1594 3097 1305 2825 
Q 1016 2553 972 2059 
L 3022 2063 
z
" transform="scale(0.015625)"/>
      <path id="DejaVuSans-6e" d="M 3513 2113 
L 3513 0 
L 2938 0 
L 2938 2094 
Q 2938 2591 2744 2837 
Q 2550 3084 2163 3084 
Q 1697 3084 1428 2787 
Q 1159 2491 1159 1978 
L 1159 0 
L 581 0 
L 581 3500 
L 1159 3500 
L 1159 2956 
Q 1366 3272 1645 3428 
Q 1925 3584 2291 3584 
Q 2894 3584 3203 3211 
Q 3513 2838 3513 2113 
z
" transform="scale(0.015625)"/>
     </defs>
     <use xlink:href="#DejaVuSans-53"/>
     <use xlink:href="#DejaVuSans-74" x="63.476562"/>
     <use xlink:href="#DejaVuSans-2e" x="102.685547"/>
     <use xlink:href="#DejaVuSans-20" x="134.472656"/>
     <use xlink:href="#DejaVuSans-47" x="166.259766"/>
     <use xlink:href="#DejaVuSans-61" x="243.75"/>
     <use xlink:href="#DejaVuSans-6c" x="305.029297"/>
     <use xlink:href="#DejaVuSans-6c" x="332.8125"/>
     <use xlink:href="#DejaVuSans-65" x="360.595703"/>
     <use xlink:href="#DejaVuSans-6e" x="422.119141"/>
    </g>
   </g>
   <g id="text_3">
    <!-- Ženeva -->
    <g transform="translate(232.024684 493.446011) scale(0.08 -0.08)">
     <defs>
      <path id="DejaVuSans-17d" d="M 359 4666 
L 4025 4666 
L 4025 4184 
L 1075 531 
L 4097 531 
L 4097 0 
L 288 0 
L 288 481 
L 3238 4134 
L 359 4134 
L 359 4666 
z
M 1898 5096 
L 1239 5927 
L 1673 5927 
L 2192 5371 
L 2711 5927 
L 3145 5927 
L 2486 5096 
L 1898 5096 
z
" transform="scale(0.015625)"/>
      <path id="DejaVuSans-76" d="M 191 3500 
L 800 3500 
L 1894 563 
L 2988 3500 
L 3597 3500 
L 2284 0 
L 1503 0 
L 191 3500 
z
" transform="scale(0.015625)"/>
     </defs>
     <use xlink:href="#DejaVuSans-17d"/>
     <use xlink:href="#DejaVuSans-65" x="68.505859"/>
     <use xlink:href="#DejaVuSans-6e" x="130.029297"/>
     <use xlink:href="#DejaVuSans-65" x="193.408203"/>
     <use xlink:href="#DejaVuSans-76" x="254.931641"/>
     <use xlink:href="#DejaVuSans-61" x="314.111328"/>
    </g>
   </g>
   <g id="text_4">
    <!-- Winterthur -->
    <g transform="translate(588.094076 231.886864) scale(0.08 -0.08)">
     <defs>
      <path id="DejaVuSans-57" d="M 213 4666 
L 850 4666 
L 1831 722 
L 2809 4666 
L 3519 4666 
L 4500 722 
L 5478 4666 
L 6119 4666 
L 4947 0 
L 4153 0 
L 3169 4050 
L 2175 0 
L 1381 0 
L 213 4666 
z
" transform="scale(0.015625)"/>
      <path id="DejaVuSans-69" d="M 603 3500 
L 1178 3500 
L 1178 0 
L 603 0 
L 603 3500 
z
M 603 4863 
L 1178 4863 
L 1178 4134 
L 603 4134 
L 603 4863 
z
" transform="scale(0.015625)"/>
     </defs>
     <use xlink:href="#DejaVuSans-57"/>
     <use xlink:href="#DejaVuSans-69" x="96.626953"/>
     <use xlink:href="#DejaVuSans-6e" x="124.410156"/>
     <use xlink:href="#DejaVuSans-74" x="187.789062"/>
     <use xlink:href="#DejaVuSans-65" x="226.998047"/>
     <use xlink:href="#DejaVuSans-72" x="288.521484"/>
     <use xlink:href="#DejaVuSans-74" x="329.634766"/>
     <use xlink:href="#DejaVuSans-68" x="368.84375"/>
     <use xlink:href="#DejaVuSans-75" x="432.222656"/>
     <use xlink:href="#DejaVuSans-72" x="495.601562"/>
    </g>
   </g>
   <g id="text_5">
    <!-- Obstalden -->
    <g transform="translate(646.181259 308.91006) scale(0.08 -0.08)">
     <defs>
      <path id="DejaVuSans-4f" d="M 2522 4238 
Q 1834 4238 1429 3725 
Q 1025 3213 1025 2328 
Q 1025 1447 1429 934 
Q 1834 422 2522 422 
Q 3209 422 3611 934 
Q 4013 1447 4013 2328 
Q 4013 3213 3611 3725 
Q 3209 4238 2522 4238 
z
M 2522 4750 
Q 3503 4750 4090 4092 
Q 4678 3434 4678 2328 
Q 4678 1225 4090 567 
Q 3503 -91 2522 -91 
Q 1538 -91 948 565 
Q 359 1222 359 2328 
Q 359 3434 948 4092 
Q 1538 4750 2522 4750 
z
" transform="scale(0.015625)"/>
      <path id="DejaVuSans-62" d="M 3116 1747 
Q 3116 2381 2855 2742 
Q 2594 3103 2138 3103 
Q 1681 3103 1420 2742 
Q 1159 2381 1159 1747 
Q 1159 1113 1420 752 
Q 1681 391 2138 391 
Q 2594 391 2855 752 
Q 3116 1113 3116 1747 
z
M 1159 2969 
Q 1341 3281 1617 3432 
Q 1894 3584 2278 3584 
Q 2916 3584 3314 3078 
Q 3713 2572 3713 1747 
Q 3713 922 3314 415 
Q 2916 -91 2278 -91 
Q 1894 -91 1617 61 
Q 1341 213 1159 525 
L 1159 0 
L 581 0 
L 581 4863 
L 1159 4863 
L 1159 2969 
z
" transform="scale(0.015625)"/>
      <path id="DejaVuSans-73" d="M 2834 3397 
L 2834 2853 
Q 2591 2978 2328 3040 
Q 2066 3103 1784 3103 
Q 1356 3103 1142 2972 
Q 928 2841 928 2578 
Q 928 2378 1081 2264 
Q 1234 2150 1697 2047 
L 1894 2003 
Q 2506 1872 2764 1633 
Q 3022 1394 3022 966 
Q 3022 478 2636 193 
Q 2250 -91 1575 -91 
Q 1294 -91 989 -36 
Q 684 19 347 128 
L 347 722 
Q 666 556 975 473 
Q 1284 391 1588 391 
Q 1994 391 2212 530 
Q 2431 669 2431 922 
Q 2431 1156 2273 1281 
Q 2116 1406 1581 1522 
L 1381 1569 
Q 847 1681 609 1914 
Q 372 2147 372 2553 
Q 372 3047 722 3315 
Q 1072 3584 1716 3584 
Q 2034 3584 2315 3537 
Q 2597 3491 2834 3397 
z
" transform="scale(0.015625)"/>
      <path id="DejaVuSans-64" d="M 2906 2969 
L 2906 4863 
L 3481 4863 
L 3481 0 
L 2906 0 
L 2906 525 
Q 2725 213 2448 61 
Q 2172 -91 1784 -91 
Q 1150 -91 751 415 
Q 353 922 353 1747 
Q 353 2572 751 3078 
Q 1150 3584 1784 3584 
Q 2172 3584 2448 3432 
Q 2725 3281 2906 2969 
z
M 947 1747 
Q 947 1113 1208 752 
Q 1469 391 1925 391 
Q 2381 391 2643 752 
Q 2906 1113 2906 1747 
Q 2906 2381 2643 2742 
Q 2381 3103 1925 3103 
Q 1469 3103 1208 2742 
Q 947 2381 947 1747 
z
" transform="scale(0.015625)"/>
     </defs>
     <use xlink:href="#DejaVuSans-4f"/>
     <use xlink:href="#DejaVuSans-62" x="78.710938"/>
     <use xlink:href="#DejaVuSans-73" x="142.1875"/>
     <use xlink:href="#DejaVuSans-74" x="194.287109"/>
     <use xlink:href="#DejaVuSans-61" x="233.496094"/>
     <use xlink:href="#DejaVuSans-6c" x="294.775391"/>
     <use xlink:href="#DejaVuSans-64" x="322.558594"/>
     <use xlink:href="#DejaVuSans-65" x="386.035156"/>
     <use xlink:href="#DejaVuSans-6e" x="447.558594"/>
    </g>
   </g>
   <g id="text_6">
    <!-- Exil -->
    <g transform="translate(542.82375 97.68) scale(0.12 -0.12)">
     <defs>
      <path id="DejaVuSans-45" d="M 628 4666 
L 3578 4666 
L 3578 4134 
L 1259 4134 
L 1259 2753 
L 3481 2753 
L 3481 2222 
L 1259 2222 
L 1259 531 
L 3634 531 
L 3634 0 
L 628 0 
L 628 4666 
z
" transform="scale(0.015625)"/>
      <path id="DejaVuSans-78" d="M 3513 3500 
L 2247 1797 
L 3578 0 
L 2900 0 
L 1881 1375 
L 863 0 
L 184 0 
L 1544 1831 
L 300 3500 
L 978 3500 
L 1906 2253 
L 2834 3500 
L 3513 3500 
z
" transform="scale(0.015625)"/>
     </defs>
     <use xlink:href="#DejaVuSans-45"/>
     <use xlink:href="#DejaVuSans-78" x="63.183594"/>
     <use xlink:href="#DejaVuSans-69" x="122.363281"/>
     <use xlink:href="#DejaVuSans-6c" x="150.146484"/>
    </g>
   </g>
   <g id="legend_1">
    <g id="patch_2">
     <path d="M 845.952128 170.3925 
L 925.656816 170.3925 
Q 927.656816 170.3925 927.656816 168.3925 
L 927.656816 110.68 
Q 927.656816 108.68 925.656816 108.68 
L 845.952128 108.68 
Q 843.952128 108.68 843.952128 110.68 
L 843.952128 168.3925 
Q 843.952128 170.3925 845.952128 170.3925 
z
" style="fill: #ffffff; opacity: 0.8; stroke: #cccccc; stroke-linejoin: miter"/>
    </g>
    <g id="text_7">
     <!-- Počet záznamů -->
     <g transform="translate(847.952128 120.278437) scale(0.1 -0.1)">
      <defs>
       <path id="DejaVuSans-50" d="M 1259 4147 
L 1259 2394 
L 2053 2394 
Q 2494 2394 2734 2622 
Q 2975 2850 2975 3272 
Q 2975 3691 2734 3919 
Q 2494 4147 2053 4147 
L 1259 4147 
z
M 628 4666 
L 2053 4666 
Q 2838 4666 3239 4311 
Q 3641 3956 3641 3272 
Q 3641 2581 3239 2228 
Q 2838 1875 2053 1875 
L 1259 1875 
L 1259 0 
L 628 0 
L 628 4666 
z
" transform="scale(0.015625)"/>
       <path id="DejaVuSans-6f" d="M 1959 3097 
Q 1497 3097 1228 2736 
Q 959 2375 959 1747 
Q 959 1119 1226 758 
Q 1494 397 1959 397 
Q 2419 397 2687 759 
Q 2956 1122 2956 1747 
Q 2956 2369 2687 2733 
Q 2419 3097 1959 3097 
z
M 1959 3584 
Q 2709 3584 3137 3096 
Q 3566 2609 3566 1747 
Q 3566 888 3137 398 
Q 2709 -91 1959 -91 
Q 1206 -91 779 398 
Q 353 888 353 1747 
Q 353 2609 779 3096 
Q 1206 3584 1959 3584 
z
" transform="scale(0.015625)"/>
       <path id="DejaVuSans-10d" d="M 3122 3366 
L 3122 2828 
Q 2878 2963 2633 3030 
Q 2388 3097 2138 3097 
Q 1578 3097 1268 2742 
Q 959 2388 959 1747 
Q 959 1106 1268 751 
Q 1578 397 2138 397 
Q 2388 397 2633 464 
Q 2878 531 3122 666 
L 3122 134 
Q 2881 22 2623 -34 
Q 2366 -91 2075 -91 
Q 1284 -91 818 406 
Q 353 903 353 1747 
Q 353 2603 823 3093 
Q 1294 3584 2113 3584 
Q 2378 3584 2631 3529 
Q 2884 3475 3122 3366 
z
M 1801 3944 
L 1035 5119 
L 1470 5119 
L 2032 4353 
L 2595 5119 
L 3029 5119 
L 2263 3944 
L 1801 3944 
z
" transform="scale(0.015625)"/>
       <path id="DejaVuSans-7a" d="M 353 3500 
L 3084 3500 
L 3084 2975 
L 922 459 
L 3084 459 
L 3084 0 
L 275 0 
L 275 525 
L 2438 3041 
L 353 3041 
L 353 3500 
z
" transform="scale(0.015625)"/>
       <path id="DejaVuSans-e1" d="M 2194 1759 
Q 1497 1759 1228 1600 
Q 959 1441 959 1056 
Q 959 750 1161 570 
Q 1363 391 1709 391 
Q 2188 391 2477 730 
Q 2766 1069 2766 1631 
L 2766 1759 
L 2194 1759 
z
M 3341 1997 
L 3341 0 
L 2766 0 
L 2766 531 
Q 2569 213 2275 61 
Q 1981 -91 1556 -91 
Q 1019 -91 701 211 
Q 384 513 384 1019 
Q 384 1609 779 1909 
Q 1175 2209 1959 2209 
L 2766 2209 
L 2766 2266 
Q 2766 2663 2505 2880 
Q 2244 3097 1772 3097 
Q 1472 3097 1187 3025 
Q 903 2953 641 2809 
L 641 3341 
Q 956 3463 1253 3523 
Q 1550 3584 1831 3584 
Q 2591 3584 2966 3190 
Q 3341 2797 3341 1997 
z
M 2290 5119 
L 2912 5119 
L 1894 3944 
L 1415 3944 
L 2290 5119 
z
" transform="scale(0.015625)"/>
       <path id="DejaVuSans-6d" d="M 3328 2828 
Q 3544 3216 3844 3400 
Q 4144 3584 4550 3584 
Q 5097 3584 5394 3201 
Q 5691 2819 5691 2113 
L 5691 0 
L 5113 0 
L 5113 2094 
Q 5113 2597 4934 2840 
Q 4756 3084 4391 3084 
Q 3944 3084 3684 2787 
Q 3425 2491 3425 1978 
L 3425 0 
L 2847 0 
L 2847 2094 
Q 2847 2600 2669 2842 
Q 2491 3084 2119 3084 
Q 1678 3084 1418 2786 
Q 1159 2488 1159 1978 
L 1159 0 
L 581 0 
L 581 3500 
L 1159 3500 
L 1159 2956 
Q 1356 3278 1631 3431 
Q 1906 3584 2284 3584 
Q 2666 3584 2933 3390 
Q 3200 3197 3328 2828 
z
" transform="scale(0.015625)"/>
       <path id="DejaVuSans-16f" d="M 544 1381 
L 544 3500 
L 1119 3500 
L 1119 1403 
Q 1119 906 1312 657 
Q 1506 409 1894 409 
Q 2359 409 2629 706 
Q 2900 1003 2900 1516 
L 2900 3500 
L 3475 3500 
L 3475 0 
L 2900 0 
L 2900 538 
Q 2691 219 2414 64 
Q 2138 -91 1772 -91 
Q 1169 -91 856 284 
Q 544 659 544 1381 
z
M 1991 3584 
L 1991 3584 
z
M 2459 4571 
Q 2459 4767 2321 4904 
Q 2184 5042 1984 5042 
Q 1781 5042 1645 4906 
Q 1509 4771 1509 4571 
Q 1509 4367 1645 4231 
Q 1781 4096 1984 4096 
Q 2184 4096 2321 4233 
Q 2459 4371 2459 4571 
z
M 2840 4571 
Q 2840 4211 2591 3961 
Q 2343 3711 1984 3711 
Q 1625 3711 1376 3961 
Q 1128 4211 1128 4571 
Q 1128 4930 1376 5178 
Q 1625 5427 1984 5427 
Q 2343 5427 2591 5178 
Q 2840 4930 2840 4571 
z
" transform="scale(0.015625)"/>
      </defs>
      <use xlink:href="#DejaVuSans-50"/>
      <use xlink:href="#DejaVuSans-6f" x="56.677734"/>
      <use xlink:href="#DejaVuSans-10d" x="117.859375"/>
      <use xlink:href="#DejaVuSans-65" x="172.839844"/>
      <use xlink:href="#DejaVuSans-74" x="234.363281"/>
      <use xlink:href="#DejaVuSans-20" x="273.572266"/>
      <use xlink:href="#DejaVuSans-7a" x="305.359375"/>
      <use xlink:href="#DejaVuSans-e1" x="357.849609"/>
      <use xlink:href="#DejaVuSans-7a" x="419.128906"/>
      <use xlink:href="#DejaVuSans-6e" x="471.619141"/>
      <use xlink:href="#DejaVuSans-61" x="534.998047"/>
      <use xlink:href="#DejaVuSans-6d" x="596.277344"/>
      <use xlink:href="#DejaVuSans-16f" x="693.689453"/>
     </g>
    </g>
    <g id="line2d_1">
     <path d="M 862.260722 131.456562 
L 872.260722 131.456562 
L 882.260722 131.456562 
" style="fill: none"/>
     <defs>
      <path id="m41d4fd6121" d="M 0 3.535534 
C 0.937635 3.535534 1.836992 3.163008 2.5 2.5 
C 3.163008 1.836992 3.535534 0.937635 3.535534 0 
C 3.535534 -0.937635 3.163008 -1.836992 2.5 -2.5 
C 1.836992 -3.163008 0.937635 -3.535534 0 -3.535534 
C -0.937635 -3.535534 -1.836992 -3.163008 -2.5 -2.5 
C -3.163008 -1.836992 -3.535534 -0.937635 -3.535534 0 
C -3.535534 0.937635 -3.163008 1.836992 -2.5 2.5 
C -1.836992 3.163008 -0.937635 3.535534 0 3.535534 
z
" style="stroke: #ff0000"/>
     </defs>
     <g>
      <use xlink:href="#m41d4fd6121" x="872.260722" y="131.456562" style="fill: #ff0000; stroke: #ff0000"/>
     </g>
    </g>
    <g id="text_8">
     <!-- 50 -->
     <g transform="translate(890.260722 134.956562) scale(0.1 -0.1)">
      <defs>
       <path id="DejaVuSans-35" d="M 691 4666 
L 3169 4666 
L 3169 4134 
L 1269 4134 
L 1269 2991 
Q 1406 3038 1543 3061 
Q 1681 3084 1819 3084 
Q 2600 3084 3056 2656 
Q 3513 2228 3513 1497 
Q 3513 744 3044 326 
Q 2575 -91 1722 -91 
Q 1428 -91 1123 -41 
Q 819 9 494 109 
L 494 744 
Q 775 591 1075 516 
Q 1375 441 1709 441 
Q 2250 441 2565 725 
Q 2881 1009 2881 1497 
Q 2881 1984 2565 2268 
Q 2250 2553 1709 2553 
Q 1456 2553 1204 2497 
Q 953 2441 691 2322 
L 691 4666 
z
" transform="scale(0.015625)"/>
       <path id="DejaVuSans-30" d="M 2034 4250 
Q 1547 4250 1301 3770 
Q 1056 3291 1056 2328 
Q 1056 1369 1301 889 
Q 1547 409 2034 409 
Q 2525 409 2770 889 
Q 3016 1369 3016 2328 
Q 3016 3291 2770 3770 
Q 2525 4250 2034 4250 
z
M 2034 4750 
Q 2819 4750 3233 4129 
Q 3647 3509 3647 2328 
Q 3647 1150 3233 529 
Q 2819 -91 2034 -91 
Q 1250 -91 836 529 
Q 422 1150 422 2328 
Q 422 3509 836 4129 
Q 1250 4750 2034 4750 
z
" transform="scale(0.015625)"/>
      </defs>
      <use xlink:href="#DejaVuSans-35"/>
      <use xlink:href="#DejaVuSans-30" x="63.623047"/>
     </g>
    </g>
    <g id="line2d_2">
     <path d="M 862.260722 146.134687 
L 872.260722 146.134687 
L 882.260722 146.134687 
" style="fill: none"/>
     <defs>
      <path id="mb29ae16e09" d="M 0 8.3666 
C 2.218848 8.3666 4.347117 7.485042 5.91608 5.91608 
C 7.485042 4.347117 8.3666 2.218848 8.3666 0 
C 8.3666 -2.218848 7.485042 -4.347117 5.91608 -5.91608 
C 4.347117 -7.485042 2.218848 -8.3666 0 -8.3666 
C -2.218848 -8.3666 -4.347117 -7.485042 -5.91608 -5.91608 
C -7.485042 -4.347117 -8.3666 -2.218848 -8.3666 0 
C -8.3666 2.218848 -7.485042 4.347117 -5.91608 5.91608 
C -4.347117 7.485042 -2.218848 8.3666 0 8.3666 
z
" style="stroke: #ff0000"/>
     </defs>
     <g>
      <use xlink:href="#mb29ae16e09" x="872.260722" y="146.134687" style="fill: #ff0000; stroke: #ff0000"/>
     </g>
    </g>
    <g id="text_9">
     <!-- 280 -->
     <g transform="translate(890.260722 149.634687) scale(0.1 -0.1)">
      <defs>
       <path id="DejaVuSans-32" d="M 1228 531 
L 3431 531 
L 3431 0 
L 469 0 
L 469 531 
Q 828 903 1448 1529 
Q 2069 2156 2228 2338 
Q 2531 2678 2651 2914 
Q 2772 3150 2772 3378 
Q 2772 3750 2511 3984 
Q 2250 4219 1831 4219 
Q 1534 4219 1204 4116 
Q 875 4013 500 3803 
L 500 4441 
Q 881 4594 1212 4672 
Q 1544 4750 1819 4750 
Q 2544 4750 2975 4387 
Q 3406 4025 3406 3419 
Q 3406 3131 3298 2873 
Q 3191 2616 2906 2266 
Q 2828 2175 2409 1742 
Q 1991 1309 1228 531 
z
" transform="scale(0.015625)"/>
       <path id="DejaVuSans-38" d="M 2034 2216 
Q 1584 2216 1326 1975 
Q 1069 1734 1069 1313 
Q 1069 891 1326 650 
Q 1584 409 2034 409 
Q 2484 409 2743 651 
Q 3003 894 3003 1313 
Q 3003 1734 2745 1975 
Q 2488 2216 2034 2216 
z
M 1403 2484 
Q 997 2584 770 2862 
Q 544 3141 544 3541 
Q 544 4100 942 4425 
Q 1341 4750 2034 4750 
Q 2731 4750 3128 4425 
Q 3525 4100 3525 3541 
Q 3525 3141 3298 2862 
Q 3072 2584 2669 2484 
Q 3125 2378 3379 2068 
Q 3634 1759 3634 1313 
Q 3634 634 3220 271 
Q 2806 -91 2034 -91 
Q 1263 -91 848 271 
Q 434 634 434 1313 
Q 434 1759 690 2068 
Q 947 2378 1403 2484 
z
M 1172 3481 
Q 1172 3119 1398 2916 
Q 1625 2713 2034 2713 
Q 2441 2713 2670 2916 
Q 2900 3119 2900 3481 
Q 2900 3844 2670 4047 
Q 2441 4250 2034 4250 
Q 1625 4250 1398 4047 
Q 1172 3844 1172 3481 
z
" transform="scale(0.015625)"/>
      </defs>
      <use xlink:href="#DejaVuSans-32"/>
      <use xlink:href="#DejaVuSans-38" x="63.623047"/>
      <use xlink:href="#DejaVuSans-30" x="127.246094"/>
     </g>
    </g>
    <g id="line2d_3">
     <path d="M 862.260722 160.812812 
L 872.260722 160.812812 
L 882.260722 160.812812 
" style="fill: none"/>
     <defs>
      <path id="m0d3de8c5b6" d="M 0 11.29159 
C 2.994565 11.29159 5.866883 10.101837 7.98436 7.98436 
C 10.101837 5.866883 11.29159 2.994565 11.29159 0 
C 11.29159 -2.994565 10.101837 -5.866883 7.98436 -7.98436 
C 5.866883 -10.101837 2.994565 -11.29159 0 -11.29159 
C -2.994565 -11.29159 -5.866883 -10.101837 -7.98436 -7.98436 
C -10.101837 -5.866883 -11.29159 -2.994565 -11.29159 0 
C -11.29159 2.994565 -10.101837 5.866883 -7.98436 7.98436 
C -5.866883 10.101837 -2.994565 11.29159 0 11.29159 
z
" style="stroke: #ff0000"/>
     </defs>
     <g>
      <use xlink:href="#m0d3de8c5b6" x="872.260722" y="160.812812" style="fill: #ff0000; stroke: #ff0000"/>
     </g>
    </g>
    <g id="text_10">
     <!-- 510 -->
     <g transform="translate(890.260722 164.312812) scale(0.1 -0.1)">
      <defs>
       <path id="DejaVuSans-31" d="M 794 531 
L 1825 531 
L 1825 4091 
L 703 3866 
L 703 4441 
L 1819 4666 
L 2450 4666 
L 2450 531 
L 3481 531 
L 3481 0 
L 794 0 
L 794 531 
z
" transform="scale(0.015625)"/>
      </defs>
      <use xlink:href="#DejaVuSans-35"/>
      <use xlink:href="#DejaVuSans-31" x="63.623047"/>
      <use xlink:href="#DejaVuSans-30" x="127.246094"/>
     </g>
    </g>
   </g>
  </g>
 </g>
 <defs>
  <clipPath id="p9fc4cbdadc">
   <rect x="174.343184" y="103.68" width="758.313632" height="665.28"/>
  </clipPath>
 </defs>
</svg>
